<svg xmlns="http://www.w3.org/2000/svg" width="16" height="16" viewBox="0 0 16 16">
  <defs>
    <style>
      .cls-1 {
        fill: #fff;
        fill-rule: evenodd;
      }
    </style>
  </defs>
  <path class="cls-1" d="M997.6,3886.22v-0.03l-0.016.03H997.6Zm6.216-7.22H990.182a1.163,1.163,0,0,0-1.182,1.15v13.7a1.163,1.163,0,0,0,1.182,1.15h13.638a1.163,1.163,0,0,0,1.18-1.15v-13.7A1.163,1.163,0,0,0,1003.82,3879Zm-9.97,13.39h-2.417v-7.22h2.417v7.22Zm-1.208-8.21h-0.016A1.381,1.381,0,1,1,992.642,3884.18Zm9.918,8.21h-2.41v-3.86c0-.97-0.352-1.64-1.227-1.64a1.326,1.326,0,0,0-1.24.88,1.661,1.661,0,0,0-.079.59v4.03h-2.417s0.032-6.54,0-7.22H997.6v1.02a2.4,2.4,0,0,1,2.178-1.19c1.588,0,2.778,1.03,2.778,3.25v4.14Z" transform="translate(-989 -3879)"/>
</svg>
